<svg id="Layer_1" data-name="Layer 1" xmlns="http://www.w3.org/2000/svg" width="1366" height="768" viewBox="0 0 1366 768">
  <defs>
    <style>
      .cls-1 {
        fill: none;
        stroke: #97bbef;
        stroke-miterlimit: 10;
        stroke-width: 12px;
      }

      .cls-2 {
        fill: #97bbef;
      }

      .cls-3 {
        fill: #c8c8c8;
      }

      .cls-4 {
        fill: #333;
      }

      .cls-5 {
        fill: #0051ff;
      }
    </style>
  </defs>
  <path class="cls-1" d="M189.5,461.74l226-146.44Z"/>
  <path class="cls-1" d="M597.57,334.41,871.28,584.23Z"/>
  <path class="cls-1" d="M942.92,603.33l189.76-93Z"/>
  <circle class="cls-2" cx="121.26" cy="503.97" r="80.26"/>
  <circle class="cls-2" cx="513.93" cy="254.61" r="115.61"/>
  <circle class="cls-2" cx="900.88" cy="616.71" r="43.95"/>
  <circle class="cls-2" cx="1195.15" cy="477.22" r="70.7"/>
  <g>
    <path class="cls-3" d="M132,413.78h23.82v18.38h95.22v31H155.84v18.3H132Z"/>
    <path class="cls-3" d="M132,377.9H158.8a26.73,26.73,0,0,1-5.31-8.27,25.53,25.53,0,0,1-1.77-9.52,22.08,22.08,0,0,1,4-13.28q4-5.47,9.16-6.69t18.93-1.21h67.28v29.71H182.38q-8.52,0-10.95.84a4.05,4.05,0,0,0,.07,7.46q2.5,1,9.93,1h69.63v29.7H132Z"/>
    <path class="cls-3" d="M204,261.43v38.46h21.1c4.41,0,7.26-.32,8.53-1s1.91-1.86,1.91-3.67q0-3.39-2.53-4.53c-1.69-.76-5-1.14-9.82-1.14H210.32V261.43h7.21a64.58,64.58,0,0,1,13.9,1.14,28.31,28.31,0,0,1,10.36,5.33,26,26,0,0,1,8.28,10.63q2.75,6.44,2.75,16.14a46.92,46.92,0,0,1-2.72,16.61,26.56,26.56,0,0,1-7.46,11.22,27,27,0,0,1-10.44,5.55q-5.7,1.54-16.58,1.54H187.16q-12.79,0-20.18-3.45a23.72,23.72,0,0,1-11.32-11.33,39.92,39.92,0,0,1-3.94-18.08q0-12.51,4.75-20.63A26.08,26.08,0,0,1,169,264.71q7.83-3.27,22-3.28Zm-15.88,29.78H181q-7.58,0-9.78.81a3.2,3.2,0,0,0-2.21,3.31c0,2.06.63,3.33,1.88,3.82s4.62.74,10.11.74h7.13Z"/>
  </g>
  <g>
    <path class="cls-4" d="M808.68,261.43h47.16V283.2H837v20.62h17.67v20.69H837v23.92h20.76v21.76h-49Z"/>
    <path class="cls-4" d="M918.85,281.05,908,323.64l13.1,46.55H894.75q-3.93-17.62-6-30.36-2.71,15.89-5.9,30.36H860.2l11.69-46.55L860.2,281.05h22.69q5.49,27.33,5.9,31,3.93-22.83,6-31Z"/>
    <path class="cls-4" d="M952.3,281.05l-.47,7.88a25.2,25.2,0,0,1,8-7.14,19.77,19.77,0,0,1,9.54-2.35,17.86,17.86,0,0,1,10.91,3.39,14.2,14.2,0,0,1,5.75,7.83q1.14,4.43,1.14,15v37.56q0,12.15-1.44,17.29a14.41,14.41,0,0,1-5.92,8.2A18.59,18.59,0,0,1,969,371.81a19.14,19.14,0,0,1-9.34-2.36,25.48,25.48,0,0,1-7.86-7v20.44H924.69V281.05ZM960,307c0-5.51-.2-8.84-.6-10s-1.53-1.75-3.36-1.75-3,.68-3.46,2-.78,4.59-.78,9.74v36.95q0,8.06.81,10.07c.54,1.35,1.7,2,3.49,2s2.84-.61,3.26-1.85.64-4.22.64-9Z"/>
    <path class="cls-4" d="M1057.57,327.2h-35.13v19.28q0,6,.87,7.79a3.38,3.38,0,0,0,3.36,1.75q3.09,0,4.13-2.32c.7-1.54,1-4.53,1-9V333h25.73v6.58a58.65,58.65,0,0,1-1,12.7,25.86,25.86,0,0,1-4.87,9.47,23.7,23.7,0,0,1-9.71,7.56q-5.88,2.52-14.74,2.52a42.72,42.72,0,0,1-15.18-2.49,24.24,24.24,0,0,1-10.25-6.82,24.66,24.66,0,0,1-5.07-9.54q-1.41-5.2-1.41-15.15v-26q0-11.7,3.16-18.44A21.69,21.69,0,0,1,1008.8,283a36.55,36.55,0,0,1,16.53-3.59q11.42,0,18.84,4.33a23.82,23.82,0,0,1,10.41,11.49q3,7.15,3,20.12Zm-27.2-14.51v-6.52q0-6.92-.74-8.93a2.94,2.94,0,0,0-3-2c-1.88,0-3,.58-3.49,1.72s-.67,4.22-.67,9.23v6.52Z"/>
    <path class="cls-4" d="M1093.58,281.05l-1.08,11.72q5.93-12.58,17.14-13.33v31.37q-7.47,0-11,2a8.46,8.46,0,0,0-4.3,5.61q-.81,3.6-.81,16.56v35.2h-27.14V281.05Z"/>
    <path class="cls-4" d="M1146.78,269.16v14h7.33v14.11h-7.33V345c0,5.87.31,9.14.91,9.81s3.13,1,7.56,1v14.37h-11a77.74,77.74,0,0,1-13.23-.77,14,14,0,0,1-7-3.56,11.77,11.77,0,0,1-3.76-6.38q-.75-3.6-.74-16.9V297.31h-5.85V283.2h5.85v-14Z"/>
    <path class="cls-4" d="M1188,261.43v14.18h-27.94V261.43Zm0,19.62v89.14h-27.94V281.05Z"/>
    <path class="cls-4" d="M1253.19,309.53h-24V304.7q0-6.18-.7-7.83c-.47-1.1-1.65-1.65-3.53-1.65a4,4,0,0,0-3.42,1.52,7.44,7.44,0,0,0-1.15,4.53,22.39,22.39,0,0,0,.58,6q.57,1.92,3.42,4.2t11.72,6.65q11.84,5.78,15.52,10.88t3.7,14.85q0,10.89-2.82,16.43a18.81,18.81,0,0,1-9.44,8.53,38.63,38.63,0,0,1-16,3,43.93,43.93,0,0,1-17.7-3.23q-7.35-3.22-10.11-8.73t-2.75-16.66v-4.3h24v5.64q0,7.2.9,9.34a3.54,3.54,0,0,0,3.6,2.15c1.92,0,3.27-.48,4-1.44s1.14-3,1.14-6.08c0-4.26-.49-6.92-1.48-8s-6.29-4.25-15.79-9.54q-12-6.7-14.57-12.19a29.8,29.8,0,0,1-2.62-13q0-10.68,2.82-15.75t9.57-7.83a41.44,41.44,0,0,1,15.69-2.75,44.49,44.49,0,0,1,15.08,2.25,23.23,23.23,0,0,1,9.54,5.94,16,16,0,0,1,4,6.86,49.73,49.73,0,0,1,.7,9.87Z"/>
    <path class="cls-4" d="M1324,327.2h-35.13v19.28q0,6,.87,7.79a3.38,3.38,0,0,0,3.36,1.75q3.09,0,4.13-2.32t1-9V333H1324v6.58a59.3,59.3,0,0,1-1,12.7,26,26,0,0,1-4.87,9.47,23.7,23.7,0,0,1-9.71,7.56q-5.88,2.52-14.74,2.52a42.78,42.78,0,0,1-15.19-2.49,24.2,24.2,0,0,1-10.24-6.82,24.66,24.66,0,0,1-5.07-9.54q-1.41-5.2-1.41-15.15v-26q0-11.7,3.15-18.44A21.75,21.75,0,0,1,1275.23,283a36.54,36.54,0,0,1,16.52-3.59q11.43,0,18.85,4.33A23.82,23.82,0,0,1,1321,295.26q3,7.15,3,20.12Zm-27.21-14.51v-6.52c0-4.61-.24-7.59-.74-8.93a2.92,2.92,0,0,0-3-2c-1.88,0-3,.58-3.49,1.72s-.67,4.22-.67,9.23v6.52Z"/>
  </g>
  <g>
    <path class="cls-5" d="M280.93,261.43H387.37V309.8H343.78v45.83h38.81v46H343.78V503.12H280.93Z"/>
    <path class="cls-5" d="M505.12,261.43l35.94,241.69H476.83l-3.38-43.44H451l-3.78,43.44h-65l32.06-241.69ZM471.81,416.84q-4.77-41.07-9.57-101.51-9.62,69.42-12.07,101.51Z"/>
    <path class="cls-5" d="M614.58,261.43V503.12H551.73V261.43Z"/>
    <path class="cls-5" d="M639.81,261.43H684.3q44.48,0,60.23,3.44t25.68,17.54q9.93,14.1,9.93,45,0,28.21-7,37.92T745.5,377q18.66,4.63,25.08,12.39t8,14.26q1.56,6.5,1.57,35.75v63.74H721.77V422.81q0-19.41-3.06-24t-16.05-4.63v109H639.81Zm62.85,41.36v53.74q10.59,0,14.85-2.91t4.26-18.89V321.45q0-11.51-4.11-15.08T702.66,302.79Z"/>
  </g>
  <g>
    <path class="cls-3" d="M873.71,394.88V503.64H845.43V458H837v45.68H808.68V394.88H837v38.9h8.47v-38.9Z"/>
    <path class="cls-3" d="M946.39,414.5v89.14H918.78l.47-7.4a18.85,18.85,0,0,1-7,6.76,19.53,19.53,0,0,1-9.5,2.26,21.46,21.46,0,0,1-10.15-2.15,14,14,0,0,1-5.94-5.71,21,21,0,0,1-2.39-7.43q-.47-3.86-.47-15.35V414.5H911v60.66q0,10.41.64,12.36c.42,1.3,1.58,2,3.46,2s3.21-.67,3.59-2,.57-5.66.57-13v-60Z"/>
    <path class="cls-3" d="M983.27,394.88v25.75a22.4,22.4,0,0,1,7.49-5.83,21.2,21.2,0,0,1,9-1.91,24.68,24.68,0,0,1,9.68,1.74,13.89,13.89,0,0,1,6.24,4.91,14.68,14.68,0,0,1,2.59,6.18,115.85,115.85,0,0,1,.44,12.9v40.17q0,9.81-1.31,14.61a15.33,15.33,0,0,1-6.15,8.33,19,19,0,0,1-11.49,3.53,19.49,19.49,0,0,1-8.9-2.09,23.76,23.76,0,0,1-7.56-6.26l-1.74,6.73h-25.4V394.88Zm8.27,44.94q0-6.92-.88-9a3.35,3.35,0,0,0-3.42-2.12,3.1,3.1,0,0,0-3.23,1.85q-.74,1.85-.74,9.3v38.43q0,7.19.84,9.2a3.25,3.25,0,0,0,3.33,2,3.17,3.17,0,0,0,3.32-2.08q.78-2.08.78-10Z"/>
  </g>
</svg>
